<?xml version="1.0" standalone="no"?>
<!DOCTYPE svg PUBLIC "-//W3C//DTD SVG 20010904//EN"
 "http://www.w3.org/TR/2001/REC-SVG-20010904/DTD/svg10.dtd">
<svg version="1.0" xmlns="http://www.w3.org/2000/svg"
 width="1000.000000pt" height="1000.000000pt" viewBox="0 0 1000.000000 1000.000000"
 preserveAspectRatio="xMidYMid meet">
<metadata>
Created by potrace 1.11, written by Peter Selinger 2001-2013
</metadata>
<g transform="translate(0.000000,1000.000000) scale(0.100000,-0.100000)"
fill="#000000" stroke="none">
<path d="M4640 9720 c-698 -66 -1334 -311 -1880 -726 -750 -569 -1269 -1393
-1429 -2269 -49 -268 -56 -363 -56 -740 0 -446 20 -628 105 -965 185 -733 575
-1357 1185 -1896 514 -454 1172 -757 1865 -858 282 -41 829 -47 1100 -12 910
119 1688 535 2320 1241 472 528 783 1194 884 1895 31 216 39 369 33 679 -9
463 -53 736 -182 1126 -229 693 -670 1306 -1280 1780 -513 399 -1095 638
-1780 732 -131 17 -738 26 -885 13z m565 -280 c775 -58 1487 -348 2085 -851
370 -311 696 -763 908 -1259 205 -478 315 -1065 283 -1510 -47 -663 -252
-1261 -615 -1800 -469 -695 -1201 -1195 -2057 -1405 -284 -70 -667 -113 -889
-100 -905 51 -1739 414 -2345 1020 -463 463 -801 1092 -940 1746 -68 322 -94
611 -76 862 53 753 322 1448 788 2032 106 133 333 362 463 467 573 461 1281
742 2010 797 155 12 230 12 385 1z"/>
<path d="M4825 8748 c-433 -43 -864 -258 -1153 -574 -534 -583 -581 -1430
-116 -2054 177 -238 378 -403 649 -535 580 -282 1272 -248 1808 89 393 247
658 608 763 1041 158 652 -131 1348 -721 1737 -361 237 -790 341 -1230 296z
m523 -286 c452 -98 828 -377 1032 -763 101 -194 151 -396 152 -619 0 -282 -74
-524 -239 -774 -65 -99 -267 -298 -381 -375 -370 -251 -843 -332 -1278 -221
-279 72 -501 197 -699 395 -201 200 -323 418 -387 689 -18 75 -22 123 -22 271
-1 200 8 262 60 425 63 198 169 373 321 531 235 244 528 396 878 455 120 20
442 12 563 -14z"/>
<path d="M4953 8310 c-58 -35 -68 -69 -73 -251 0 -3 -19 -11 -42 -18 -134 -40
-282 -159 -345 -277 -86 -161 -84 -360 4 -520 59 -108 217 -234 337 -269 l41
-12 3 -287 c1 -173 -1 -286 -7 -286 -5 0 -29 15 -53 33 -54 41 -97 124 -107
204 -11 92 -49 137 -125 150 -50 8 -110 -21 -137 -64 -19 -30 -21 -45 -17
-111 9 -133 60 -241 164 -344 56 -56 165 -122 247 -148 37 -12 37 -12 38 -68
1 -153 33 -205 131 -218 54 -6 104 17 135 65 20 29 23 47 23 122 0 88 0 89 28
95 15 4 55 19 88 34 266 119 400 408 312 673 -54 167 -212 316 -385 368 l-43
12 0 289 0 289 28 -15 c71 -38 141 -145 142 -218 1 -129 121 -203 224 -139 53
33 71 90 57 180 -33 211 -177 382 -381 452 l-70 24 0 80 c0 94 -18 138 -69
172 -43 29 -104 30 -148 3z m-75 -1054 c-20 -27 -125 85 -153 164 -39 111 6
247 107 320 l43 31 5 -253 c3 -139 2 -257 -2 -262z m372 -402 c114 -103 122
-282 17 -396 -23 -26 -54 -54 -69 -63 l-28 -17 0 266 0 267 21 -11 c11 -7 38
-27 59 -46z"/>
<path d="M2894 5749 c-67 -25 -133 -84 -164 -145 l-25 -49 0 -910 0 -910 30
-54 c33 -59 72 -96 143 -132 46 -24 51 -24 327 -24 l280 0 56 26 c68 32 124
87 153 148 21 46 21 50 21 946 l0 900 -28 57 c-34 69 -91 121 -164 148 -49 18
-77 20 -316 19 -236 0 -267 -2 -313 -20z m536 -261 c9 -25 13 -1639 4 -1675
-6 -23 -7 -23 -224 -23 -189 0 -219 2 -224 16 -3 9 -6 390 -6 848 0 634 3 835
12 844 9 9 72 12 220 12 207 0 209 0 218 -22z"/>
<path d="M6677 5690 c-63 -16 -112 -47 -160 -100 -25 -28 -52 -67 -59 -88 -10
-29 -13 -211 -13 -897 0 -854 0 -860 21 -905 29 -62 87 -118 153 -149 l56 -26
280 0 c276 0 281 0 327 24 71 36 110 73 143 132 l30 54 0 870 c0 862 0 870
-21 915 -27 58 -85 114 -154 148 l-55 27 -255 2 c-140 1 -272 -2 -293 -7z
m497 -276 c8 -20 8 -1588 0 -1608 -5 -14 -35 -16 -224 -16 -217 0 -218 0 -224
23 -7 27 -7 1540 1 1585 l5 32 218 0 c189 0 219 -2 224 -16z"/>
<path d="M5379 5236 c-83 -30 -141 -80 -181 -156 l-23 -45 0 -650 c0 -618 1
-652 19 -685 36 -68 79 -111 140 -143 l61 -32 280 0 280 0 57 27 c73 34 132
95 158 165 20 54 21 69 18 687 l-3 631 -27 51 c-30 56 -77 102 -141 136 -40
22 -53 23 -322 25 -212 2 -289 0 -316 -11z m519 -848 l2 -598 -219 0 c-190 0
-220 2 -225 16 -11 29 -7 1144 4 1165 10 18 21 19 223 17 l212 -3 3 -597z"/>
<path d="M4161 5164 c-95 -25 -163 -83 -202 -168 -17 -38 -19 -79 -19 -646 l0
-605 24 -50 c27 -58 89 -118 155 -149 44 -20 61 -21 326 -21 264 0 283 1 326
21 60 28 114 76 147 133 l27 46 3 604 c3 677 4 661 -68 744 -24 27 -62 55
-102 73 l-63 29 -250 2 c-196 2 -262 -1 -304 -13z m504 -814 l0 -555 -222 -3
-223 -2 0 553 c0 305 3 557 7 561 4 3 104 5 222 4 l216 -3 0 -555z"/>
<path d="M8750 2015 c-238 -58 -415 -250 -481 -520 -19 -74 -23 -120 -23 -255
-1 -101 4 -188 12 -225 77 -350 279 -582 552 -631 305 -55 562 94 710 409 67
143 84 233 84 442 1 157 -2 191 -22 264 -73 269 -236 449 -460 510 -93 25
-282 28 -372 6z m264 -736 c37 -29 54 -66 66 -147 14 -88 2 -163 -40 -249 -36
-72 -70 -103 -114 -103 -84 0 -153 152 -144 315 9 147 52 205 154 205 37 0 59
-6 78 -21z"/>
<path d="M551 1994 c-63 -8 -118 -17 -123 -22 -4 -4 3 -201 17 -437 14 -237
31 -583 38 -770 l12 -340 95 -14 c59 -8 195 -14 360 -14 290 -1 339 6 480 69
84 38 163 122 186 199 30 106 4 221 -67 297 l-35 36 49 43 c215 185 235 580
39 772 -97 95 -234 154 -422 183 -121 18 -473 17 -629 -2z m688 -632 c14 -10
32 -35 38 -55 27 -80 -28 -147 -121 -147 -38 0 -38 1 -32 31 3 17 6 70 6 117
l0 85 42 -6 c23 -3 53 -14 67 -25z m-9 -497 c22 -20 27 -74 9 -107 -12 -23
-66 -48 -104 -48 -25 0 -25 0 -25 91 l0 92 50 -5 c28 -3 59 -13 70 -23z"/>
<path d="M3405 1989 c-139 -14 -145 -16 -145 -48 0 -15 9 -169 20 -342 10
-173 27 -505 35 -739 9 -234 19 -428 23 -432 17 -17 243 -30 439 -25 227 5
310 20 439 78 307 137 465 444 424 818 -42 384 -271 617 -674 686 -97 16 -417
19 -561 4z m660 -708 c52 -23 101 -80 116 -133 14 -54 6 -180 -15 -231 -34
-78 -122 -151 -192 -159 -28 -3 -29 -2 -29 40 1 23 2 146 3 272 l2 230 38 0
c20 0 55 -9 77 -19z"/>
<path d="M5445 1990 c-368 -39 -639 -270 -710 -605 -25 -117 -23 -325 5 -430
80 -306 302 -491 661 -551 164 -27 588 -8 624 28 3 2 9 78 15 169 6 90 17 238
25 328 12 123 13 167 4 177 -9 11 -55 14 -223 14 -255 0 -242 8 -221 -131 7
-52 16 -134 20 -182 l7 -88 -29 6 c-124 28 -209 90 -237 172 -38 111 -13 225
68 307 98 101 233 141 393 117 72 -10 89 -10 100 2 11 11 9 63 -14 331 -26
298 -29 317 -48 321 -32 8 -274 25 -324 24 -25 -1 -78 -5 -116 -9z"/>
<path d="M1808 1963 c-13 -16 -14 -43 -7 -198 10 -214 44 -600 65 -740 52
-353 175 -523 436 -603 196 -61 498 -49 751 29 l97 30 0 352 c0 318 10 702 25
1003 5 95 3 114 -10 128 -14 14 -49 16 -254 16 -216 0 -239 -2 -254 -18 -15
-16 -15 -35 -2 -222 17 -248 41 -990 32 -1013 -9 -25 -93 -23 -134 3 -41 25
-60 61 -73 144 -11 73 -15 895 -4 1001 11 110 28 105 -341 105 -285 0 -313 -2
-327 -17z"/>
<path d="M6148 1966 c-17 -12 -16 -48 12 -697 16 -376 32 -721 36 -766 l6 -83
299 0 299 0 0 53 c0 80 17 491 41 1009 18 379 20 470 9 483 -11 13 -59 15
-349 15 -262 -1 -340 -4 -353 -14z"/>
<path d="M6936 1962 c-15 -17 -15 -43 -4 -323 9 -226 15 -307 25 -317 11 -11
35 -12 132 -3 66 6 126 11 134 11 10 0 16 -17 21 -57 5 -48 46 -779 46 -835 0
-17 19 -18 260 -18 l260 0 4 23 c3 12 14 200 26 417 12 217 24 412 27 433 7
43 4 43 164 26 83 -8 105 -8 116 4 10 10 17 91 29 321 14 294 14 309 -3 322
-15 11 -130 13 -619 14 -570 0 -602 -1 -618 -18z"/>
</g>
</svg>
